<!--

https://github.com/datalog/qrcode-svg

--><svg viewBox="0 0 37 37" width="256" height="256" fill="#000000" shape-rendering="crispEdges" xmlns="http://www.w3.org/2000/svg" version="1.1"><path transform="matrix(1,0,0,1,4,4)" d="M27,28h1v1h-1v-1zM24,28h2v1h-2v-1zM20,28h2v1h-2v-1zM17,28h1v1h-1v-1zM11,28h2v1h-2v-1zM0,28h7v1h-7v-1zM27,27h1v1h-1v-1zM23,27h1v1h-1v-1zM17,27h5v1h-5v-1zM15,27h1v1h-1v-1zM13,27h1v1h-1v-1zM8,27h3v1h-3v-1zM6,27h1v1h-1v-1zM0,27h1v1h-1v-1zM28,26h1v1h-1v-1zM24,26h3v1h-3v-1zM17,26h4v1h-4v-1zM10,26h4v1h-4v-1zM6,26h1v1h-1v-1zM2,26h3v1h-3v-1zM0,26h1v1h-1v-1zM28,25h1v1h-1v-1zM26,25h1v1h-1v-1zM24,25h1v1h-1v-1zM19,25h4v1h-4v-1zM15,25h3v1h-3v-1zM11,25h1v1h-1v-1zM8,25h2v1h-2v-1zM6,25h1v1h-1v-1zM2,25h3v1h-3v-1zM0,25h1v1h-1v-1zM20,24h6v1h-6v-1zM14,24h2v1h-2v-1zM9,24h1v1h-1v-1zM6,24h1v1h-1v-1zM2,24h3v1h-3v-1zM0,24h1v1h-1v-1zM28,23h1v1h-1v-1zM26,23h1v1h-1v-1zM24,23h1v1h-1v-1zM20,23h1v1h-1v-1zM13,23h5v1h-5v-1zM11,23h1v1h-1v-1zM8,23h2v1h-2v-1zM6,23h1v1h-1v-1zM0,23h1v1h-1v-1zM24,22h3v1h-3v-1zM22,22h1v1h-1v-1zM20,22h1v1h-1v-1zM17,22h1v1h-1v-1zM10,22h3v1h-3v-1zM8,22h1v1h-1v-1zM0,22h7v1h-7v-1zM27,21h2v1h-2v-1zM24,21h1v1h-1v-1zM20,21h1v1h-1v-1zM16,21h1v1h-1v-1zM13,21h1v1h-1v-1zM8,21h3v1h-3v-1zM26,20h2v1h-2v-1zM20,20h5v1h-5v-1zM15,20h2v1h-2v-1zM8,20h6v1h-6v-1zM5,20h2v1h-2v-1zM2,20h1v1h-1v-1zM0,20h1v1h-1v-1zM28,19h1v1h-1v-1zM25,19h1v1h-1v-1zM19,19h1v1h-1v-1zM17,19h1v1h-1v-1zM12,19h1v1h-1v-1zM8,19h1v1h-1v-1zM3,19h1v1h-1v-1zM23,18h6v1h-6v-1zM20,18h2v1h-2v-1zM14,18h3v1h-3v-1zM10,18h1v1h-1v-1zM6,18h1v1h-1v-1zM4,18h1v1h-1v-1zM2,18h1v1h-1v-1zM0,18h1v1h-1v-1zM27,17h2v1h-2v-1zM25,17h1v1h-1v-1zM20,17h4v1h-4v-1zM15,17h2v1h-2v-1zM13,17h1v1h-1v-1zM7,17h2v1h-2v-1zM5,17h1v1h-1v-1zM27,16h2v1h-2v-1zM23,16h1v1h-1v-1zM18,16h4v1h-4v-1zM6,16h7v1h-7v-1zM1,16h4v1h-4v-1zM27,15h2v1h-2v-1zM23,15h1v1h-1v-1zM21,15h1v1h-1v-1zM16,15h3v1h-3v-1zM10,15h4v1h-4v-1zM7,15h2v1h-2v-1zM2,15h4v1h-4v-1zM0,15h1v1h-1v-1zM27,14h2v1h-2v-1zM20,14h2v1h-2v-1zM16,14h2v1h-2v-1zM11,14h4v1h-4v-1zM5,14h5v1h-5v-1zM2,14h1v1h-1v-1zM27,13h1v1h-1v-1zM25,13h1v1h-1v-1zM23,13h1v1h-1v-1zM18,13h4v1h-4v-1zM13,13h3v1h-3v-1zM11,13h1v1h-1v-1zM8,13h2v1h-2v-1zM3,13h1v1h-1v-1zM22,12h2v1h-2v-1zM19,12h1v1h-1v-1zM17,12h1v1h-1v-1zM11,12h5v1h-5v-1zM9,12h1v1h-1v-1zM6,12h2v1h-2v-1zM3,12h2v1h-2v-1zM0,12h1v1h-1v-1zM26,11h2v1h-2v-1zM24,11h1v1h-1v-1zM21,11h2v1h-2v-1zM16,11h1v1h-1v-1zM11,11h2v1h-2v-1zM7,11h2v1h-2v-1zM4,11h2v1h-2v-1zM0,11h1v1h-1v-1zM26,10h2v1h-2v-1zM22,10h3v1h-3v-1zM17,10h4v1h-4v-1zM14,10h2v1h-2v-1zM10,10h2v1h-2v-1zM8,10h1v1h-1v-1zM6,10h1v1h-1v-1zM4,10h1v1h-1v-1zM28,9h1v1h-1v-1zM26,9h1v1h-1v-1zM20,9h3v1h-3v-1zM16,9h2v1h-2v-1zM12,9h3v1h-3v-1zM9,9h1v1h-1v-1zM7,9h1v1h-1v-1zM1,9h4v1h-4v-1zM28,8h1v1h-1v-1zM25,8h2v1h-2v-1zM21,8h3v1h-3v-1zM16,8h1v1h-1v-1zM13,8h1v1h-1v-1zM11,8h1v1h-1v-1zM5,8h4v1h-4v-1zM3,8h1v1h-1v-1zM1,8h1v1h-1v-1zM20,7h1v1h-1v-1zM15,7h4v1h-4v-1zM12,7h2v1h-2v-1zM8,7h3v1h-3v-1zM22,6h7v1h-7v-1zM20,6h1v1h-1v-1zM18,6h1v1h-1v-1zM16,6h1v1h-1v-1zM14,6h1v1h-1v-1zM12,6h1v1h-1v-1zM10,6h1v1h-1v-1zM8,6h1v1h-1v-1zM0,6h7v1h-7v-1zM28,5h1v1h-1v-1zM22,5h1v1h-1v-1zM15,5h6v1h-6v-1zM13,5h1v1h-1v-1zM11,5h1v1h-1v-1zM8,5h1v1h-1v-1zM6,5h1v1h-1v-1zM0,5h1v1h-1v-1zM28,4h1v1h-1v-1zM24,4h3v1h-3v-1zM22,4h1v1h-1v-1zM17,4h1v1h-1v-1zM12,4h1v1h-1v-1zM9,4h2v1h-2v-1zM6,4h1v1h-1v-1zM2,4h3v1h-3v-1zM0,4h1v1h-1v-1zM28,3h1v1h-1v-1zM24,3h3v1h-3v-1zM22,3h1v1h-1v-1zM18,3h2v1h-2v-1zM15,3h2v1h-2v-1zM10,3h4v1h-4v-1zM8,3h1v1h-1v-1zM6,3h1v1h-1v-1zM2,3h3v1h-3v-1zM0,3h1v1h-1v-1zM28,2h1v1h-1v-1zM24,2h3v1h-3v-1zM22,2h1v1h-1v-1zM19,2h1v1h-1v-1zM16,2h2v1h-2v-1zM14,2h1v1h-1v-1zM10,2h2v1h-2v-1zM8,2h1v1h-1v-1zM6,2h1v1h-1v-1zM2,2h3v1h-3v-1zM0,2h1v1h-1v-1zM28,1h1v1h-1v-1zM22,1h1v1h-1v-1zM20,1h1v1h-1v-1zM17,1h1v1h-1v-1zM12,1h3v1h-3v-1zM10,1h1v1h-1v-1zM6,1h1v1h-1v-1zM0,1h1v1h-1v-1zM22,0h7v1h-7v-1zM18,0h2v1h-2v-1zM15,0h1v1h-1v-1zM13,0h1v1h-1v-1zM10,0h1v1h-1v-1zM8,0h1v1h-1v-1zM0,0h7v1h-7v-1z"/></svg>